<svg width="91" height="36" xmlns="http://www.w3.org/2000/svg"><path d="M19.987 7.25C25.995-.97 34.829-.048 36.637.115l-1.691 6.218c-2.121.067-6.575.429-9.759 4.785-.682.933-1.216 1.972-1.636 3.04l.18-.117c1.367-.835 3.05-1.258 5.004-1.257 1.266 0 2.528.22 3.752.655a9.55 9.55 0 013.362 2.07c.994.944 1.793 2.152 2.38 3.592.586 1.44.882 3.147.882 5.073 0 1.92-.34 3.649-1.012 5.138-.663 1.477-1.56 2.728-2.663 3.718a11.297 11.297 0 01-3.728 2.223 12.43 12.43 0 01-4.24.748c-1.754 0-3.37-.266-4.803-.792a9.336 9.336 0 01-3.797-2.583c-1.032-1.168-1.827-2.656-2.367-4.422-.365-1.182-.604-2.542-.718-4.054-.098-.775-.159-2.607.072-4.917l.022-.243.002-.002c.381-3.53 1.452-8.102 4.108-11.736zM12.507 0l-.009 36-6.784-.002.007-27.699-3.47 1.059L0 3.968 12.507 0zm40.98 0c1.408 0 2.74.21 3.958.626 1.238.425 2.326 1.03 3.236 1.798a8.798 8.798 0 012.25 2.906c.565 1.176.85 2.482.85 3.886 0 2.216-.584 4.081-1.733 5.544a11.529 11.529 0 01-1.864 1.883c.097.06.194.12.29.183.85.55 1.628 1.242 2.314 2.057a10.57 10.57 0 011.72 2.932c.45 1.134.68 2.456.68 3.924 0 1.856-.36 3.476-1.069 4.816a9.124 9.124 0 01-2.764 3.217 11.107 11.107 0 01-3.763 1.718 16.82 16.82 0 01-4.113.51c-1.414 0-2.807-.172-4.14-.512a11.085 11.085 0 01-3.733-1.718 9.11 9.11 0 01-2.773-3.228c-.703-1.33-1.062-2.95-1.061-4.809 0-1.476.23-2.793.683-3.915a10.733 10.733 0 011.716-2.891 11.133 11.133 0 012.273-2.066c.11-.075.22-.148.332-.22a11.737 11.737 0 01-1.867-1.916c-1.144-1.479-1.723-3.333-1.722-5.514 0-1.406.287-2.714.854-3.884a8.736 8.736 0 012.248-2.908c.913-.767 2.001-1.37 3.233-1.794C50.746.209 52.08 0 53.487 0zm25.811 0c1.41 0 2.74.21 3.958.626 1.24.425 2.327 1.03 3.236 1.798a8.774 8.774 0 012.25 2.907c.566 1.175.852 2.48.85 3.885 0 2.216-.583 4.081-1.733 5.544a11.53 11.53 0 01-1.863 1.883c.097.06.194.12.29.184.85.55 1.628 1.241 2.314 2.056a10.57 10.57 0 011.72 2.932c.45 1.134.68 2.456.68 3.924 0 1.856-.36 3.476-1.07 4.816a9.133 9.133 0 01-2.763 3.217 11.126 11.126 0 01-3.763 1.718c-1.347.34-2.731.51-4.115.51a16.79 16.79 0 01-4.139-.512 11.092 11.092 0 01-3.733-1.718 9.107 9.107 0 01-2.772-3.228c-.703-1.33-1.063-2.95-1.062-4.809 0-1.476.23-2.793.684-3.915a10.748 10.748 0 011.714-2.891 11.156 11.156 0 012.606-2.286 11.702 11.702 0 01-1.866-1.916c-1.144-1.478-1.725-3.333-1.724-5.514 0-1.406.289-2.714.855-3.884A8.746 8.746 0 0172.1 2.419c.913-.767 2.001-1.37 3.233-1.794C76.558.209 77.89 0 79.298 0zM53.372 20h-.018s-.039.009-.121.035l-.12.04a11.74 11.74 0 00-1.304.576c-1.111.556-2.08 1.2-2.773 2.101-.693.901-1.52 2.942-.1 5.006 1.386 2.016 3.833 2.115 4.424 2.108h.065c.683-.002 3.003-.158 4.337-2.106 1.412-2.063.59-4.104-.098-5.005-.689-.902-1.648-1.553-2.757-2.104-1.11-.55-1.535-.65-1.535-.65zm26.078 0h-.019s-.039.009-.121.035l-.12.04a11.74 11.74 0 00-1.304.576c-1.11.556-2.08 1.2-2.773 2.101-.693.901-1.52 2.942-.1 5.006 1.386 2.016 3.833 2.115 4.424 2.108h.065c.683-.002 3.003-.158 4.337-2.105 1.412-2.064.592-4.105-.098-5.006-.689-.902-1.648-1.553-2.756-2.103-1.11-.551-1.535-.652-1.535-.652zm-52.011-.984c-2.664-.001-4.823 2.177-4.824 4.863v1.023c0 2.685 2.158 4.863 4.821 4.864h.527c2.663 0 4.822-2.176 4.823-4.862v-1.022c0-2.686-2.158-4.865-4.82-4.866zM53.535 6.134h-.122c-.539.003-2.306.13-3.325 1.593-1.086 1.562-.455 3.107.075 3.79.53.681 1.268 1.174 2.121 1.59.853.417 1.181.493 1.181.493h.014s.343-.076 1.188-.492c.855-.421 1.6-.909 2.133-1.59.533-.682 1.169-2.227.077-3.79-1.066-1.524-2.95-1.599-3.403-1.594zm25.811 0h-.122c-.538.003-2.306.13-3.325 1.593-1.086 1.562-.455 3.107.075 3.79.53.681 1.268 1.174 2.121 1.59.854.417 1.181.493 1.181.493h.014s.343-.076 1.188-.492c.856-.421 1.6-.909 2.133-1.59.534-.682 1.17-2.227.078-3.79-1.067-1.524-2.95-1.599-3.404-1.594z" fill="#FF4000" fill-rule="evenodd"/></svg>